<?xml version="1.0" encoding="iso-8859-1"?><!DOCTYPE svg PUBLIC "-//W3C//DTD SVG 1.1//EN" "http://www.w3.org/Graphics/SVG/1.1/DTD/svg11.dtd"><svg xmlns="http://www.w3.org/2000/svg" xmlns:xlink="http://www.w3.org/1999/xlink"><defs><svg viewBox="0 0 511.96 511.96" id="icon-carousel"><path d="M448.188 447.901H263.98v-92.766c32.203 2.677 60.355 22.953 72.973 53.198a25.206 25.206 0 0 0 23.321 15.539c3.343 0 6.613-.657 9.717-1.953 6.228-2.598 11.071-7.465 13.637-13.706 2.566-6.239 2.548-13.105-.05-19.333a138.4 138.4 0 0 0-16.943-29.683 7.64 7.64 0 0 0-.218-.278c-18.622-27.176-16.732-56.364-11.118-74.393 11.446 7.542 30.619 17.238 43.862 8.579 5.815-3.802 11.833-11.243 7.478-25.102-2.414-7.681-7.583-16.145-13.056-25.106l-.602-.985c-9.298-15.233-7.974-31.348-7.539-36.643.439-5.341-1.426-8.699-5.542-9.98-36.182-11.261-56.239 11.98-73.935 32.487-14.716 17.054-27.425 31.782-47.699 27.721-41.697-8.354-62.316-1.225-71.165 4.09-15.658-8.43-30.35-9.906-43.736-4.378-30.066 12.417-40.735 56.216-41.175 58.075a7.998 7.998 0 0 0 1.896 7.255c.209.228 5.213 5.648 11.593 10.729 10.247 8.16 18.588 11.102 25.497 8.993 4.259-1.3 9.665-5.01 11.231-15.302 2.181-14.333 8.94-23.847 14.49-25.838 1.559-.561 3.74-.853 6.783 1.875 3.915 3.51.415 13.094-2.02 18.494-4.788 10.617-12.935 22.364-19.481 31.803-1.935 2.79-3.771 5.438-5.333 7.789l-.125.163a138.41 138.41 0 0 0-16.908 29.636c-2.598 6.228-2.616 13.094-.05 19.333 2.566 6.24 7.409 11.108 13.641 13.708 12.853 5.353 27.67-.743 33.034-13.589 12.43-29.795 39.939-49.914 71.543-53.064v92.633H63.772c-13.233 0-24 10.767-24 24v32.058a8 8 0 0 0 8 8h416.416a8 8 0 0 0 8-8v-32.058c0-13.234-10.767-24.001-24-24.001zM161.671 402.17c-1.966 4.71-7.401 6.945-12.113 4.983a9.202 9.202 0 0 1-4.999-5.023 9.2 9.2 0 0 1 .019-7.089 122.435 122.435 0 0 1 14.528-25.639 8.03 8.03 0 0 0 .706-.92c1.536-2.334 3.468-5.12 5.514-8.069 15.054-21.704 37.802-54.502 19.035-71.329-6.794-6.091-14.916-7.875-22.867-5.023-12.239 4.391-22.015 19.5-24.905 38.491-.176 1.157-.398 1.892-.57 2.329-3.278-.523-10.651-5.757-17.097-12.033 1.174-3.804 3.275-9.835 6.47-16.33 4.668-9.49 12.635-21.794 24.081-26.521 9.708-4.009 21.134-2.009 33.96 5.949 3.488 2.163 7.661 1.799 10.154-1.417 1.38-1.183 16.028-12.46 61.537-3.343 3.497.701 6.826 1.026 10.011 1.026 23.617-.002 39.096-17.936 52.944-33.983 15.281-17.708 28.648-33.191 51.127-29.132-.467 15.55 2.929 29.372 10.119 41.151l.604.988c4.948 8.101 9.621 15.753 11.447 21.563 1.637 5.209.312 6.076-.969 6.914-5.858 3.829-23.669-5.824-33.737-13.957a8 8 0 0 0-12.236 2.724c-2.773 5.72-9.205 21.355-9.027 42.937.169 20.519 6.495 40.312 18.293 57.24.184.264.38.513.589.748a122.433 122.433 0 0 1 14.524 25.634 9.202 9.202 0 0 1 .019 7.088 9.199 9.199 0 0 1-5 5.024 9.247 9.247 0 0 1-12.111-4.981c-16.055-38.483-53.354-63.349-95.024-63.349-41.674.002-78.973 24.868-95.026 63.349zm294.517 93.79H55.772v-24.058c0-4.411 3.589-8 8-8h384.416c4.411 0 8 3.589 8 8v24.058z"/><path d="M471.055 82.928L297.209 8.422c-26.202-11.23-56.257-11.23-82.458 0L40.905 82.928a28.262 28.262 0 0 0-17.149 26.006v9.266c0 21.183 15.868 39.29 36.126 41.222 11.269 1.074 22.504-2.65 30.829-10.219a39.9 39.9 0 0 0 5.109-5.643c7.309 9.737 18.947 16.049 32.032 16.049 13.085 0 24.723-6.311 32.032-16.049 7.309 9.737 18.947 16.049 32.032 16.049s24.723-6.311 32.032-16.049c5.787 7.71 14.288 13.27 24.072 15.251a8.232 8.232 0 0 0-.041.805v72.072a8 8 0 0 0 16 0v-72.072c0-.272-.014-.54-.041-.805 9.784-1.982 18.286-7.542 24.073-15.251 7.309 9.737 18.947 16.049 32.032 16.049s24.723-6.311 32.032-16.049c7.309 9.737 18.947 16.049 32.032 16.049 13.085 0 24.723-6.312 32.032-16.049a39.9 39.9 0 0 0 5.109 5.643c7.383 6.712 17.054 10.401 27.008 10.401 1.27 0 2.546-.06 3.822-.182 20.258-1.932 36.126-20.039 36.125-41.222v-9.266a28.26 28.26 0 0 0-17.148-26.006zm1.148 35.271c0 13.026-9.507 24.137-21.645 25.294-6.892.657-13.477-1.52-18.547-6.13a24.09 24.09 0 0 1-7.872-17.788 8 8 0 0 0-16 0c0 13.251-10.781 24.032-24.032 24.032s-24.032-10.781-24.032-24.032a8 8 0 0 0-16 0c0 13.251-10.781 24.032-24.032 24.032s-24.032-10.781-24.032-24.032a8 8 0 0 0-16 0c0 13.251-10.781 24.032-24.032 24.032s-24.032-10.781-24.032-24.032a8 8 0 0 0-16 0c0 13.251-10.781 24.032-24.032 24.032s-24.032-10.781-24.032-24.032a8 8 0 0 0-16 0c0 13.251-10.781 24.032-24.032 24.032s-24.032-10.781-24.032-24.032a8 8 0 0 0-16 0 24.091 24.091 0 0 1-7.872 17.788c-5.07 4.61-11.66 6.787-18.547 6.13-12.138-1.158-21.645-12.268-21.645-25.294v-9.266c0-1.907.443-3.738 1.243-5.381h295.058a8 8 0 0 0 0-16H70.731l150.323-64.424c22.196-9.513 47.657-9.513 69.853 0L441.23 87.552h-25.09a8 8 0 0 0 0 16h54.82a12.282 12.282 0 0 1 1.243 5.381v9.266z"/><path d="M384.107 87.552h-16.018a8 8 0 0 0 0 16h16.018a8 8 0 0 0 0-16z"/></svg><svg viewBox="0 0 654 518" id="icon-details-icon"><path d="M558.7 82.1l-8.2 1c-.2 0-19.9 2.4-48 2.4-21 0-40.9-1.3-59.3-3.9-8.1-1.1-16-1.7-23.6-1.7-45.6 0-72.8 20.4-84.9 32.6l-3.6 3.7-3.6-3.7c-12.1-12.2-39.2-32.6-84.8-32.6-7.6 0-15.6.6-23.7 1.7-18.4 2.6-38.3 3.9-59.3 3.9-28.3 0-47.7-2.4-47.9-2.4l-8.3-1v274.6l6.3.9c17.9 2.6 34.8 3.9 51.9 3.9 17.2 0 31.8-1.3 45.9-2.5 12.5-1.1 24.4-2.1 36.9-2.1 6.1 0 11.8.2 17.5.7 42.5 3.7 59.8 39.9 60.5 41.5 1.2 2.6 3.8 4.3 6.7 4.3.3 0 .5 0 1-.1l.6-.2 2.1.3c2.9 0 5.5-1.7 6.7-4.4.7-1.5 17.7-37.7 60.4-41.4 5.7-.5 11.4-.7 17.5-.7 12.6 0 24.4 1 37 2.1 14.1 1.2 28.7 2.5 45.9 2.5 17.1 0 34-1.3 51.9-3.9l6.3-.9.1-274.6zM118.1 344V98.6l5.5.4c8 .6 20.6 1.3 35.8 1.3 21.7 0 42.4-1.4 61.6-4.1 7.3-1 14.6-1.6 21.5-1.6 55.9 0 79.6 33.8 80.5 35.2 1.4 2 3.6 3.3 6.1 3.3.4 0 .8 0 1.1-.1l.5-.2 1 .2c.4.1.8.1 1.1.1 2.5 0 4.8-1.2 6.1-3.3.2-.4 24.3-35.2 80.7-35.2 6.9 0 14.1.5 21.4 1.6 19.2 2.7 39.9 4.1 61.6 4.1 15.1 0 27.8-.7 35.8-1.3l5.5-.4V344l-4.5.5c-13.3 1.6-26 2.3-38.8 2.3-16.5 0-30.9-1.2-44.8-2.4-12.9-1.1-25.1-2.2-38.1-2.2-6.5 0-12.7.3-18.8.8-32.4 2.8-52.6 21-63.7 35.8l-4.1 5.4-4.1-5.4c-11.2-14.8-31.3-33-63.7-35.8-6.2-.5-12.3-.8-18.8-.8-12.9 0-25.2 1-38.1 2.2-13.9 1.2-28.3 2.4-44.7 2.4-12.8 0-25.6-.8-38.9-2.3l-4.7-.5z"/><path d="M333 445.4c-.3 0-.6-.1-.9-.1l-1-.2-1 .2c-.3 0-.6.1-.9.1h-48.5v-26.7L69.4 388.6V132c0-3.1 2.5-5.7 5.7-5.7s5.7 2.5 5.7 5.7v246.7l211.1 30.2v25.2h37.2c.3 0 .6.1.9.1l1 .2 1.1-.2c.3 0 .6-.1.9-.1h37.2v-25.2l211.1-30.2V132c0-3.1 2.5-5.7 5.7-5.7 3.1 0 5.7 2.5 5.7 5.7v256.5l-211.1 30.2v26.7H333z"/></svg><svg viewBox="0 0 24 24" id="icon-gear"><path d="M24 14.187V9.813c-2.148-.766-2.726-.802-3.027-1.529-.303-.729.083-1.169 1.059-3.223l-3.093-3.093c-2.026.963-2.488 1.364-3.224 1.059-.727-.302-.768-.889-1.527-3.027H9.813c-.764 2.144-.8 2.725-1.529 3.027-.752.313-1.203-.1-3.223-1.059L1.968 5.061c.977 2.055 1.362 2.493 1.059 3.224-.302.727-.881.764-3.027 1.528v4.375c2.139.76 2.725.8 3.027 1.528.304.734-.081 1.167-1.059 3.223l3.093 3.093c1.999-.95 2.47-1.373 3.223-1.059.728.302.764.88 1.529 3.027h4.374c.758-2.131.799-2.723 1.537-3.031.745-.308 1.186.099 3.215 1.062l3.093-3.093c-.975-2.05-1.362-2.492-1.059-3.223.3-.726.88-.763 3.027-1.528zm-4.875.764c-.577 1.394-.068 2.458.488 3.578l-1.084 1.084c-1.093-.543-2.161-1.076-3.573-.49-1.396.581-1.79 1.693-2.188 2.877h-1.534c-.398-1.185-.791-2.297-2.183-2.875-1.419-.588-2.507-.045-3.579.488l-1.083-1.084c.557-1.118 1.066-2.18.487-3.58-.579-1.391-1.691-1.784-2.876-2.182v-1.533c1.185-.398 2.297-.791 2.875-2.184.578-1.394.068-2.459-.488-3.579l1.084-1.084c1.082.538 2.162 1.077 3.58.488 1.392-.577 1.785-1.69 2.183-2.875h1.534c.398 1.185.792 2.297 2.184 2.875 1.419.588 2.506.045 3.579-.488l1.084 1.084c-.556 1.121-1.065 2.187-.488 3.58.577 1.391 1.689 1.784 2.875 2.183v1.534c-1.188.398-2.302.791-2.877 2.183zM12 9c1.654 0 3 1.346 3 3s-1.346 3-3 3-3-1.346-3-3 1.346-3 3-3zm0-2c-2.762 0-5 2.238-5 5s2.238 5 5 5 5-2.238 5-5-2.238-5-5-5z"/></svg><svg viewBox="0 0 444.955 444.955" id="icon-grid"><path d="M95.347 0H31.782C14.239 0 0 14.239 0 31.782v63.565c0 17.544 14.239 31.782 31.782 31.782h63.565c17.544 0 31.782-14.239 31.782-31.782V31.782C127.13 14.239 112.891 0 95.347 0zM254.26 0h-63.565c-17.544 0-31.782 14.239-31.782 31.782v63.565c0 17.544 14.239 31.782 31.782 31.782h63.565c17.544 0 31.782-14.239 31.782-31.782V31.782C286.042 14.239 271.804 0 254.26 0zM413.172 0h-63.565c-17.544 0-31.783 14.239-31.783 31.782v63.565c0 17.544 14.239 31.782 31.783 31.782h63.565c17.544 0 31.783-14.239 31.783-31.782V31.782C444.955 14.239 430.716 0 413.172 0zM95.347 158.912H31.782C14.239 158.912 0 173.151 0 190.695v63.565c0 17.544 14.239 31.782 31.782 31.782h63.565c17.544 0 31.782-14.239 31.782-31.782v-63.565c.001-17.544-14.238-31.783-31.782-31.783zM254.26 158.912h-63.565c-17.544 0-31.782 14.239-31.782 31.782v63.565c0 17.544 14.239 31.782 31.782 31.782h63.565c17.544 0 31.782-14.239 31.782-31.782v-63.565c0-17.543-14.238-31.782-31.782-31.782zM413.172 158.912h-63.565c-17.544 0-31.783 14.239-31.783 31.782v63.565c0 17.544 14.239 31.782 31.783 31.782h63.565c17.544 0 31.783-14.239 31.783-31.782v-63.565c0-17.543-14.239-31.782-31.783-31.782zM95.347 317.825H31.782C14.239 317.825 0 332.063 0 349.607v63.565c0 17.544 14.239 31.783 31.782 31.783h63.565c17.544 0 31.782-14.239 31.782-31.783v-63.565c.001-17.544-14.238-31.782-31.782-31.782zM254.26 317.825h-63.565c-17.544 0-31.782 14.239-31.782 31.783v63.565c0 17.544 14.239 31.783 31.782 31.783h63.565c17.544 0 31.782-14.239 31.782-31.783v-63.565c0-17.545-14.238-31.783-31.782-31.783zM413.172 317.825h-63.565c-17.544 0-31.783 14.239-31.783 31.783v63.565c0 17.544 14.239 31.783 31.783 31.783h63.565c17.544 0 31.783-14.239 31.783-31.783v-63.565c0-17.545-14.239-31.783-31.783-31.783z"/></svg><svg viewBox="0 0 494.64 494.64" id="icon-list"><path d="M491.986 79.216c-2.775-4.641-7.351-7.895-12.631-8.957L199.171 2.712c-9.234-1.79-18.344 3.311-21.54 12.134L70.833 286.161l35.654 12.993 101.21-257.977L451.144 103.3c-15.204 47.134-51.383 145.512-86.064 237.112-30.236 79.921-47.635 107.289-80.705 112.878-.039-.039-.075-.077-.075-.135-67.586 9.474-66.373-76.688-66.373-76.688L2.076 289.276C-13.263 386.5 61.443 409.884 61.443 409.884l158.033 71.75c.038.02 24.708 11.771 51.521 10.563 72.323-1.703 97.739-54.218 129.585-138.352 46.008-121.594 92.705-257.838 93.164-259.283a18.772 18.772 0 0 0-1.76-15.346z"/><path d="M364.272 188.63c1.646.45 3.35.689 5.033.689 8.324 0 15.94-5.55 18.274-13.971 2.774-10.115-3.216-20.564-13.317-23.32l-82.233-25.381c-9.989-2.765-20.555 3.177-23.311 13.282-2.757 10.114 3.178 20.564 13.318 23.33l82.236 25.371zM235.784 215.939c-3.296 9.962 2.055 20.69 11.989 24.015l81.802 29.232c1.986.661 3.938.958 5.907.969 7.979.042 15.453-4.991 18.117-12.96 3.305-9.935-2.036-20.679-12.01-24.002l-81.771-29.213c-9.993-3.307-20.699 2.043-24.034 11.959zM228.587 283.185c-9.952-3.33-20.698 2.104-23.952 12.096-3.272 9.914 2.182 20.67 12.134 23.923l81.973 29.111c1.975.669 3.942.956 5.936.956 7.961 0 15.387-5.07 18.01-13.033 3.271-9.971-2.163-20.707-12.115-23.961l-81.986-29.092zM225.552 104.517c11.617 0 21.043 9.167 21.043 20.459 0 11.301-9.426 20.458-21.043 20.458-11.626 0-21.052-9.158-21.052-20.458.001-11.292 9.426-20.459 21.052-20.459zM195.783 180.572c11.627 0 21.043 9.158 21.043 20.449 0 11.282-9.416 20.439-21.043 20.439-11.626 0-21.052-9.157-21.052-20.439 0-11.29 9.426-20.449 21.052-20.449zM164.033 259.039c11.627 0 21.052 9.168 21.052 20.479 0 11.29-9.425 20.438-21.052 20.438-11.626 0-21.052-9.146-21.052-20.438 0-11.311 9.426-20.479 21.052-20.479z"/></svg><svg viewBox="100 564.8 1000 300" id="icon-logo"><path d="M170.9 751.6c-19.3 0-44.2-10.9-44.2-22.5 0-3.2 3.7-11.1 10.6-11.1 5.3 0 9.3 2.3 14 4.9 5.8 3.2 12.3 6.9 22.1 6.9 4.5 0 18.2 0 18.2-14.3 0-9.2-10.7-13.3-23.1-17.9C150.9 691 131 683.5 131 662c0-21.7 17.2-36.3 42.8-36.3 16 0 39.2 7.4 39.2 20.8 0 5.4-4 11.1-9.9 11.1-1.8 0-6-1.9-9.7-3.6-6.6-3.1-14.1-6.5-21.5-6.5-9.7 0-16.3 5.7-16.3 14.1 0 9.4 10.8 13.5 23.3 18.2 17.5 6.6 37.2 14.1 37.2 35.3 0 21.4-18.6 36.5-45.2 36.5zM290.2 751.6c-33.7 0-53-16.9-53-46.4v-62.9c0-9.1 5.1-15 13-15s13 5.9 13 15v62.2c0 17.7 13.5 26.9 26.9 26.9s26.9-9.2 26.9-26.9v-62.2c0-9.1 5.1-15 13-15s13 5.9 13 15v62.9c.2 29.4-19.1 46.4-52.8 46.4zM384.9 801.4c-7.9 0-13-5.9-13-15V642.2c0-9.1 5.1-15 13-15 7.3 0 11.3 3.4 13.1 11.1l2.5 10.4 5.6-9.1c5.2-8.4 16.7-13.9 29.4-13.9 24.9 0 51.8 20.2 51.8 64.6 0 30.1-19.8 61.2-53 61.2-10.4 0-21-4-29.1-11l-7.3-6.3v52.3c0 9.1-5.1 14.9-13 14.9zm44.8-152.5c-21.8 0-31.8 20.1-31.8 38.8 0 19.6 9.9 40.7 31.8 40.7 20.5 0 31.5-20.4 31.5-39.5 0-19.4-11.1-40-31.5-40zM558.9 751.6c-30.8 0-53.2-26.3-53.2-62.6 0-35.4 23.4-63.1 53.2-63.1 12.4 0 23.2 5.1 29.6 14.1l6.7 9.4 1.3-11.4c.7-6.1 6-10.6 12.3-10.6 11.4 0 12.3 7.3 12.3 18.3v86.2c0 11.1-.9 18.3-12.3 18.3-7 0-10.2-2.9-12.4-11.5l-2.2-8.2-5.5 6.5c-8.3 9.8-18 14.6-29.8 14.6zm4.9-102.7c-22 0-32 20.7-32 40 0 19.6 11 39.5 32 39.5 20.5 0 31.3-19.9 31.3-39.5 0-19.9-10.8-40-31.3-40zM670.8 750.1c-7.9 0-13-5.9-13-15v-84.8h-12.2c-7 0-10.8-3.8-10.8-10.8 0-6.3 4.6-10.8 10.8-10.8h12.2v-22.3c0-22.1 12-35.3 32.1-35.3 9 0 19.8 2 19.8 11.3 0 7.6-2.6 10.4-9.9 10.4-5.6 0-16 0-16 17.2v18.7h15.3c11.7 0 13.3 5.5 13.3 10.8 0 4.7-1.4 10.8-13.3 10.8h-15.3v84.8c0 9.1-5.1 15-13 15zM774.4 751.6c-33.1 0-58-26.9-58-62.6 0-39.5 29.5-63.1 58-63.1s58 23.6 58 63.1c0 35.6-24.9 62.6-58 62.6zm0-102.7c-22 0-32 20.7-32 40 0 19.6 11 39.5 32 39.5s32-19.9 32-39.5c0-19.3-10-40-32-40zM868.6 750.1c-7.9 0-13-5.9-13-15V586c0-9.1 5.1-15 13-15s13 5.9 13 15v149.1c0 9.1-5.1 15-13 15zM922.3 750.1c-7.9 0-13-5.9-13-15v-93c0-9.1 5.1-15 13-15s13 5.9 13 15v93c0 9.1-5.1 15-13 15zm0-144.8c-8 0-15.2-7.5-15.2-15.7 0-7.6 7.4-14.7 15.2-14.7 8 0 15.2 7 15.2 14.7 0 8.7-6.8 15.7-15.2 15.7zM1016.5 751.6c-33.1 0-58-26.9-58-62.6 0-39.5 29.5-63.1 58-63.1s58 23.6 58 63.1c0 35.6-24.9 62.6-58 62.6zm0-102.7c-22 0-32 20.7-32 40 0 19.6 11 39.5 32 39.5s32-19.9 32-39.5c0-19.3-10-40-32-40z"/><g><path d="M522.9 832.9c-7.1 0-14.6-2.7-14.6-6.8 0-2.4 1.4-4.2 3.4-4.2 1.4 0 2.7.7 4.2 1.4 2 1 4.3 2.2 7.5 2.2 3.8 0 5.1-2.2 5.1-4.1 0-3-2.4-4-6.4-5.4-1.2-.4-2.5-.9-4.1-1.6-6.1-2.7-8.6-4.6-8.6-10.1 0-6 5.3-12.2 14.1-12.2 4.3 0 12.4 2.1 12.4 7 0 2.1-1.4 3.5-3.5 3.5-.7 0-2-.6-3.2-1.2-2-.9-4.2-2-6.6-2-2.8 0-4.8 1.7-4.8 4.2 0 2.9 3.3 4.1 7.1 5.5 5.6 2 12 4.3 12 11.6 0 8.5-7.3 12.2-14 12.2zM560.9 832.9c-8.3 0-17.3-3.8-17.3-14.6v-20.8c0-2.7 1.9-4.7 4.5-4.7s4.5 2 4.5 4.7v19c0 5.5 4.2 8.3 8.4 8.3 4.1 0 8.4-2.9 8.4-8.3v-19c0-2.7 1.9-4.7 4.5-4.7s4.5 2 4.5 4.7v20.8c-.1 10.8-9.1 14.6-17.5 14.6zM591.4 849c-2.6 0-4.5-2-4.5-4.7v-46.7c0-2.7 1.9-4.7 4.5-4.7 2.7 0 3.9 2.2 4.2 3l1.1 2.4 1.7-2c2.4-3 5-4.1 9.2-4.1 9.6 0 17.2 9 17.2 20.4s-7.6 20.4-17.2 20.4c-4.9 0-7.2-1.6-9-3l-2.7-2.2v16.6c0 2.6-1.9 4.6-4.5 4.6zm14.5-48.5c-5.9 0-10 4.9-10 11.9s4.1 11.9 10 11.9 10-4.9 10-11.9-4.1-11.9-10-11.9zM647.6 832.9c-9.6 0-17.2-9-17.2-20.4s7.6-20.4 17.2-20.4c4.3 0 6.8 1.2 9.2 4.1l1.7 2 1.1-2.4c.3-.7 1.5-3 4.2-3 2.6 0 4.5 2 4.5 4.7v29.9c0 2.7-1.9 4.7-4.5 4.7-2.7 0-3.9-2.2-4.2-3l-1.1-2.4-1.7 2c-2.3 3.1-4.9 4.2-9.2 4.2zm1.8-32.4c-5.9 0-10 4.9-10 11.9s4.1 11.9 10 11.9 10-4.9 10-11.9c-.1-7-4.1-11.9-10-11.9z"/><g><path d="M692.5 832.9c-9.6 0-17.2-9-17.2-20.4s7.6-20.4 17.2-20.4c4.9 0 7.2 1.6 9 3l2.7 2.2v-17.9c0-2.7 1.9-4.7 4.5-4.7s4.5 2 4.5 4.7v48c0 2.7-1.9 4.7-4.5 4.7-2.7 0-3.9-2.2-4.2-3l-1.1-2.4-1.7 2c-2.4 3.1-4.9 4.2-9.2 4.2zm1.8-32.4c-5.9 0-10 4.9-10 11.9s4.1 11.9 10 11.9 10-4.9 10-11.9-4.2-11.9-10-11.9zM739.1 832.9c-8.4 0-17.3-3.8-17.3-14.6v-20.8c0-2.7 1.9-4.7 4.5-4.7s4.5 2 4.5 4.7v19c0 5.5 4.2 8.3 8.4 8.3s8.4-2.9 8.4-8.3v-19c0-2.7 1.9-4.7 4.5-4.7s4.5 2 4.5 4.7v20.8c-.2 10.8-9.1 14.6-17.5 14.6zm9.1-49.3c-2.5 0-4.5-2-4.5-4.5s2-4.5 4.5-4.5 4.5 2 4.5 4.5-2 4.5-4.5 4.5zm-18.1 0c-2.5 0-4.5-2-4.5-4.5s2-4.5 4.5-4.5 4.5 2 4.5 4.5-2.1 4.5-4.5 4.5z"/></g><g><path d="M765.3 782.6v-6.1h-2.4v-.9h5.8v.8h-2.5v6.1l-.9.1zM769.3 782.6v-7h1.4l1.7 5 .4 1c.1-.3.2-.7.4-1.2l1.7-4.8h1.3v7h-.9v-5.9l-2.1 5.9h-.9l-2.1-6v6h-.9z"/></g></g><g><path d="M436.2 795.4c0-.7.2-1.4.6-1.9.4-.5 1.1-.8 2-.8h8.7c1.8 0 3.3.3 4.6.8 1.3.6 2.5 1.3 3.4 2.2.9.9 1.6 1.9 2 3.1.5 1.1.7 2.3.7 3.4 0 2.2-.5 4.1-1.5 5.6s-2.4 2.6-4 3.1v.1c1.2.1 2.3.4 3.4 1 1 .6 2 1.3 2.7 2.1.8.9 1.4 1.9 1.8 3 .4 1.2.7 2.4.7 3.7 0 1.6-.3 3.1-.9 4.5-.6 1.4-1.4 2.7-2.5 3.7-1.1 1.1-2.5 1.9-4.1 2.5-1.6.6-3.5.9-5.6.9h-9.5c-.9 0-1.6-.3-2-.8-.4-.5-.6-1.2-.6-1.9v-34.3zm4.9 14.1h5.6c2.1 0 3.8-.6 4.9-1.8 1.1-1.2 1.7-2.8 1.7-4.6 0-1.8-.5-3.3-1.6-4.4-1-1.2-2.7-1.7-4.9-1.7H441v12.5zm0 18.8h6.9c2.4 0 4.4-.7 6-2 1.6-1.3 2.4-3.1 2.4-5.4 0-1-.2-2-.5-2.9-.4-.9-.9-1.7-1.6-2.4-.7-.7-1.6-1.2-2.6-1.6s-2.1-.6-3.4-.6h-7.2v14.9zM474.5 813.8l-10.7-17.4c-.5-.8-.8-1.5-.8-2.1 0-.6.2-1.1.6-1.5.4-.4 1-.5 1.6-.5.4 0 .9.1 1.3.3.4.2.8.6 1.2 1.3L477 809l9.2-15.1c.4-.6.8-1.1 1.2-1.3.4-.2.8-.3 1.3-.3.6 0 1.2.2 1.6.5.4.4.6.8.6 1.5 0 .6-.3 1.2-.8 2.1l-10.7 17.4v16.4c0 .8-.2 1.5-.7 1.9-.4.5-1 .7-1.8.7-.7 0-1.3-.2-1.8-.7-.4-.5-.7-1.1-.7-1.9v-16.4z"/></g></svg><svg viewBox="0 0 654 518" id="icon-lookup-icon"><path d="M146.7 350.1c8 0 14.3 3.5 19 10.6 4.7 7 7 16.6 7 28.6 0 12.1-2.3 21.7-7 28.7s-11 10.5-19 10.5c-7.9 0-14.2-3.5-18.8-10.5-4.6-7-7-16.6-7-28.7 0-12.1 2.3-21.6 7-28.7 4.6-7 10.8-10.5 18.8-10.5zm.1 13.2c-3.7 0-6.6 2.3-8.7 6.9-2.2 4.6-3.2 10.9-3.2 18.9 0 8.1 1.1 14.5 3.2 19.1 2.1 4.6 5 6.9 8.7 6.9 3.7 0 6.6-2.3 8.8-6.9 2.1-4.6 3.2-11 3.2-19.1 0-8.1-1.1-14.4-3.2-18.9-2.2-4.6-5.1-6.9-8.8-6.9zM218.7 413.9h8.4c2.3 0 4 .5 5 1.5s1.5 2.6 1.5 4.9c0 2.2-.5 3.8-1.5 4.8s-2.7 1.5-5.1 1.5h-30.7c-2.4 0-4.1-.5-5.1-1.5s-1.5-2.6-1.5-4.8c0-2.2.5-3.9 1.5-4.9 1-1 2.7-1.5 5.1-1.5h9.7V364l-5.8 1.7c-.9.2-1.7.4-2.2.5-.6.1-1 .2-1.3.2-1.4 0-2.5-.5-3.3-1.5-.8-1-1.2-2.5-1.2-4.4 0-1.4.5-2.5 1.3-3.5.9-1 2.2-1.7 4-2.2l12.9-4c1.1-.3 2-.5 2.7-.7.7-.2 1.3-.2 1.7-.2 1.4 0 2.4.4 2.9 1.3.6.9.9 2.3.9 4.4v58.3zM274.6 350.1c8 0 14.3 3.5 19 10.6 4.6 7 7 16.6 7 28.6 0 12.1-2.4 21.7-7 28.7-4.7 7-11.1 10.5-19 10.5s-14.2-3.5-18.8-10.5c-4.7-7-7-16.6-7-28.7 0-12.1 2.3-21.6 7-28.7 4.6-7 10.9-10.5 18.8-10.5zm.1 13.2c-3.7 0-6.6 2.3-8.8 6.9-2.1 4.6-3.2 10.9-3.2 18.9 0 8.1 1.1 14.5 3.2 19.1 2.1 4.6 5 6.9 8.8 6.9 3.7 0 6.6-2.3 8.8-6.9 2.1-4.6 3.2-11 3.2-19.1 0-8.1-1.1-14.4-3.2-18.9-2.1-4.6-5.1-6.9-8.8-6.9zM374.7 413.9h8.4c2.3 0 4 .5 5 1.5 1.1 1 1.6 2.6 1.6 4.9 0 2.2-.5 3.8-1.5 4.8s-2.7 1.5-5.1 1.5h-30.7c-2.4 0-4.1-.5-5.1-1.5s-1.5-2.6-1.5-4.8c0-2.2.5-3.9 1.5-4.9 1-1 2.7-1.5 5.1-1.5h9.7V364l-5.8 1.7c-.9.2-1.6.4-2.2.5-.6.1-1 .2-1.3.2-1.5 0-2.5-.5-3.3-1.5-.8-1-1.2-2.5-1.2-4.4 0-1.4.5-2.5 1.3-3.5s2.2-1.7 4-2.2l12.9-4c1.1-.3 2-.5 2.7-.7.7-.2 1.3-.2 1.7-.2 1.4 0 2.4.4 3 1.3.6.9.9 2.3.9 4.4v58.3zM438.7 413.9h8.4c2.3 0 4 .5 5 1.5 1.1 1 1.6 2.6 1.6 4.9 0 2.2-.5 3.8-1.5 4.8s-2.7 1.5-5.1 1.5h-30.7c-2.4 0-4.1-.5-5.1-1.5s-1.5-2.6-1.5-4.8c0-2.2.5-3.9 1.5-4.9 1-1 2.7-1.5 5.1-1.5h9.7V364l-5.8 1.7c-.9.2-1.6.4-2.2.5-.6.1-1 .2-1.3.2-1.4 0-2.5-.5-3.3-1.5-.8-1-1.1-2.5-1.1-4.4 0-1.4.4-2.5 1.3-3.5.8-1 2.2-1.7 4-2.2l12.9-4c1.1-.3 2-.5 2.7-.7.7-.2 1.2-.2 1.7-.2 1.4 0 2.4.4 3 1.3.6.9.9 2.3.9 4.4v58.3zM494.7 350.1c8 0 14.3 3.5 19 10.6 4.7 7 7 16.6 7 28.6 0 12.1-2.3 21.7-7 28.7s-11 10.5-19 10.5c-7.9 0-14.2-3.5-18.8-10.5-4.6-7-6.9-16.6-6.9-28.7 0-12.1 2.3-21.6 6.9-28.7 4.6-7 10.8-10.5 18.8-10.5zm.1 13.2c-3.7 0-6.6 2.3-8.7 6.9-2.1 4.6-3.2 10.9-3.2 18.9 0 8.1 1 14.5 3.2 19.1 2.1 4.6 5 6.9 8.8 6.9 3.7 0 6.6-2.3 8.8-6.9 2.2-4.6 3.2-11 3.2-19.1 0-8.1-1.1-14.4-3.2-18.9-2.3-4.6-5.2-6.9-8.9-6.9zM314.7 98h12.4v278.7h-12.4zM93.3 98h12.4v278.7H93.3zM388.9 98h12.5v232.9h-12.5zM219.4 98h12.4v232.9h-12.4zM434.9 98h26.3v232.9h-26.3zM347.8 98h26.3v232.9h-26.3zM490.9 98h26.2v232.9h-26.2zM177.3 98h12.4v232.9h-12.4zM133 98h26.3v232.9H133zM283.1 98h12.4v232.9h-12.4zM238.9 98h26.3v232.9h-26.3z"/><g><path d="M535.6 98H548v278.7h-12.4z"/></g></svg><svg viewBox="0 0 92.833 92.833" id="icon-menu-icon"><path d="M89.834 1.75H3c-1.654 0-3 1.346-3 3v13.334c0 1.654 1.346 3 3 3h86.833c1.653 0 3-1.346 3-3V4.75a3.002 3.002 0 0 0-2.999-3zM89.834 36.75H3c-1.654 0-3 1.346-3 3v13.334c0 1.654 1.346 3 3 3h86.833c1.653 0 3-1.346 3-3V39.75a3.002 3.002 0 0 0-2.999-3zM89.834 71.75H3c-1.654 0-3 1.346-3 3v13.334c0 1.654 1.346 3 3 3h86.833c1.653 0 3-1.346 3-3V74.75a3.002 3.002 0 0 0-2.999-3z"/></svg><svg viewBox="0 0 124.512 124.512" id="icon-right-arrow"><path d="M113.956 57.006l-97.4-56.2c-4-2.3-9 .6-9 5.2v112.5c0 4.6 5 7.5 9 5.2l97.4-56.2c4-2.401 4-8.2 0-10.5z"/></svg><svg viewBox="0 0 654 518" id="icon-search-icon"><path d="M483.5 437.3c-3.7 0-7.2-1.4-9.8-4.1L359.9 319.4l-9.6 6.8c-25.1 17.7-54.5 27.1-85.2 27.1-39.6 0-76.9-15.4-104.9-43.4-57.8-57.8-57.8-151.9 0-209.7 28-28 65.3-43.4 104.9-43.4 39.6 0 76.8 15.4 104.9 43.4 51 51 57.9 131 16.3 190.1l-6.7 9.6 113.8 113.8c5.4 5.4 5.4 14.2 0 19.7-2.7 2.5-6.2 3.9-9.9 3.9zM265.1 73.4c-35.2 0-68.2 13.7-93.1 38.5-9.4 9.5-17.4 20.2-23.5 31.9-9.8 18.8-15.1 39.9-15.1 61.2 0 21.3 5.2 42.4 15.1 61.2 4.1 7.7 8.9 15.1 14.5 21.9 2.8 3.4 5.8 6.8 9 10 6.3 6.3 13.3 12 20.7 16.9 21.5 14.2 46.5 21.7 72.4 21.7 24.3 0 48.1-6.8 68.9-19.6l1-.6c.8-.5 1.7-1 2.6-1.5 7.4-4.9 14.4-10.6 20.7-16.9 3.2-3.2 6.2-6.5 9-10 3.4-4.1 6.5-8.6 10-14.2l.6-.9c1.4-2.2 2.7-4.5 4-6.8 9.8-18.7 15.1-39.9 15.1-61.2 0-21.3-5.2-42.5-15.1-61.2-6.1-11.7-14-22.4-23.5-31.9-25.1-24.8-58.1-38.5-93.3-38.5z"/></svg><svg viewBox="0 0 92 92" id="icon-tooltip"><path d="M45.386.004C19.983.344-.333 21.215.005 46.619c.34 25.393 21.209 45.715 46.611 45.377 25.398-.342 45.718-21.213 45.38-46.615-.34-25.395-21.21-45.716-46.61-45.377zM45.25 74l-.254-.004c-3.912-.116-6.67-2.998-6.559-6.852.109-3.788 2.934-6.538 6.717-6.538l.227.004c4.021.119 6.748 2.972 6.635 6.937C51.904 71.346 49.123 74 45.25 74zm16.455-32.659c-.92 1.307-2.943 2.93-5.492 4.916l-2.807 1.938c-1.541 1.198-2.471 2.325-2.82 3.434-.275.873-.41 1.104-.434 2.88l-.004.451H39.43l.031-.907c.131-3.728.223-5.921 1.768-7.733 2.424-2.846 7.771-6.289 7.998-6.435.766-.577 1.412-1.234 1.893-1.936 1.125-1.551 1.623-2.772 1.623-3.972a7.74 7.74 0 0 0-1.471-4.576c-.939-1.323-2.723-1.993-5.303-1.993-2.559 0-4.311.812-5.359 2.478-1.078 1.713-1.623 3.512-1.623 5.35v.457H27.936l.02-.477c.285-6.769 2.701-11.643 7.178-14.487C37.947 18.918 41.447 18 45.531 18c5.346 0 9.859 1.299 13.412 3.861 3.6 2.596 5.426 6.484 5.426 11.556 0 2.837-.896 5.502-2.664 7.924z"/></svg></defs></svg>